 http://imageshack.us/m/194/6607/watchcasinojackmovieonl.jpg

Country.......: Canada
Genre.........: Drama, Crime, Comedy
Date release..: 16.09.2010 [World]
Director......: George Hickenlooper
Writers.......: Norman Snider
Duration......: 103 min.
More..........: http://www.imdb.com/title/tt1194417
Trailer.......: http://www.imdb.com/video/imdb/vi402888985
Trailer.......:

Pilot :
A hot shot Washington DC lobbyist and his protégé go down hard as their schemes to peddle influence lead to corruption and murder. 

Cats :
Kevin Spacey   	 ...  	Jack Abramoff
Ruth Marshall 	... 	Susan Schmidt
Graham Greene 	... 	Bernie Sprague
Hannah Endicott Douglas 	... 	Sarah Abramoff
Barry Pepper 	... 	Michael Scanlon
John Robinson 	... 	Federal Agent Patterson
Jason Weinberg 	... 	Snake
Spencer Garrett 	... 	Tom DeLay
Yok Come Ho 	... 	Asian Factory Worker
Anna Hardwick 	... 	Lobbyist #2
John David Whalen 	... 	Kevin Ring
Matt Gordon 	... 	Bill Jarrell
Jeffrey R. Smith 	... 	Grover Norquist
Christian Campbell 	... 	Ralph Reed
Eric Schweig 	... 	Chief Poncho 

Data Technical :
!!! SAMPLE !!!
Audio.....: English
Subtitles.: English .srt, Polish .txt
Format                           : AVI
Format/Info                      : Audio Video Interleave
File size                        : 701 MiB
Duration                         : 1h 43mn
Overall bit rate                 : 949 Kbps
Writing application              : Noir's Hyper HD Xvid
Writing library                  : VirtualDub build 32839/release
Original source form             : Noir's Shit
Copyright                        : By Noir
Video
ID                               : 0
Format                           : MPEG-4 Visual
Format profile                   : Advanced Simple@L5
Format settings, BVOP            : Yes
Format settings, QPel            : No
Format settings, GMC             : No warppoints
Format settings, Matrix          : Default (H.263)
Muxing mode                      : Packed bitstream
Codec ID                         : XVID
Codec ID/Hint                    : XviD
Duration                         : 1h 43mn
Bit rate                         : 826 Kbps
Width                            : 600 pixels
Height                           : 320 pixels
Display aspect ratio             : 1.875
Frame rate                       : 25.000 fps
Color space                      : YUV
Chroma subsampling               : 4:2:0
Bit depth                        : 8 bits
Scan type                        : Progressive
Bits/(Pixel*Frame)               : 0.172
Stream size                      : 610 MiB (87%)
Writing library                  : XviD 57
Audio
ID                               : 1
Format                           : MPEG Audio
Format version                   : Version 1
Format profile                   : Layer 3
Mode                             : Joint stereo
Mode extension                   : MS Stereo
Codec ID                         : 55
Codec ID/Hint                    : MP3
Duration                         : 1h 43mn
Bit rate mode                    : Variable
Bit rate                         : 112 Kbps
Channel(s)                       : 2 channels
Sampling rate                    : 44.1 KHz
Stream size                      : 81.9 MiB (12%)
Alignment                        : Aligned on interleaves
Interleave, duration             : 26 ms (0.65 video frame)
Interleave, preload duration     : 459 ms
Writing library                  : LAME3.98.4

Screen : 
http://imageshack.us/m/834/7682/casinojack2010s1.jpg 
http://imageshack.us/m/840/3595/casinojack2010s2.jpg 
http://imageshack.us/m/651/1531/casinojack2010s3.jpg 
http://imageshack.us/m/859/5126/casinojack2010s4.jpg 
http://imageshack.us/m/3/9294/casinojack2010s5.jpg